<?xml version="1.0" encoding="UTF-8"?>
<svg xmlns="http://www.w3.org/2000/svg" viewBox="0 0 480 480">
  <defs>
    <style>
      .cls-1 {
        fill: #f7ec2b;
      }

      .cls-2 {
        fill: #007db6;
      }
    </style>
  </defs>
  <g id="Background">
    <rect class="cls-1" x="0" width="480" height="480"/>
  </g>
  <g id="Icons_Monogram" data-name="Icons/Monogram">
    <path class="cls-2" d="M276.11,206.67v14.44c0,7.98-6.47,14.44-14.44,14.44h-43.33c-7.98,0-14.44-6.47-14.44-14.44v-14.44c0-7.98,6.47-14.44,14.44-14.44h43.33c7.98,0,14.44,6.47,14.44,14.44ZM355.56,170.56h-43.72l15.15,41.67-16.46,131.66h-34.42v7.22c0,15.93-12.96,28.89-28.89,28.89h-14.44c-15.93,0-28.89-12.96-28.89-28.89v-7.22h-34.42l-16.46-131.66,15.15-41.67h-43.72v-28.89h54.23l7.88-21.67h106.9l7.88,21.67h54.23v28.89ZM247.22,293.33h-14.44v57.78h14.44v-57.78ZM297.46,215.55l-24.24-66.66h-66.43l-24.24,66.66,12.43,99.45h8.92v-21.67c0-15.93,12.96-28.89,28.89-28.89h14.44c15.93,0,28.89,12.96,28.89,28.89v21.67h8.92l12.43-99.45Z"/>
  </g>
</svg>